<svg xmlns="http://www.w3.org/2000/svg" xmlns:xlink="http://www.w3.org/1999/xlink" id="Layer_1" data-name="Layer 1" viewBox="0 0 60 60">
  <defs>
    <style>
      .cls-1 {
        fill: #fff;
      }

      .cls-2 {
        clip-path: url(#clippath);
      }

      .cls-3 {
        fill: none;
      }

      .cls-4 {
        fill: url(#linear-gradient);
      }
    </style>
    <clipPath id="clippath">
      <circle class="cls-3" cx="30" cy="30" r="30"/>
    </clipPath>
    <linearGradient id="linear-gradient" x1="-334.9" y1="444.52" x2="-334.31" y2="444.51" gradientTransform="translate(28413.18 37748.04) scale(84.85 -84.85)" gradientUnits="userSpaceOnUse">
      <stop offset="0" stop-color="#0071a8"/>
      <stop offset=".41" stop-color="#018bc3"/>
      <stop offset=".75" stop-color="#039ed7"/>
      <stop offset="1" stop-color="#04a6df"/>
    </linearGradient>
  </defs>
  <g id="Group_115164" data-name="Group 115164">
    <g class="cls-2">
      <g id="Group_115163" data-name="Group 115163">
        <rect id="Rectangle_17128" data-name="Rectangle 17128" class="cls-4" x="-12.43" y="-12.43" width="84.85" height="84.85" transform="translate(-12.43 30) rotate(-45)"/>
      </g>
    </g>
  </g>
  <g>
    <g>
      <g>
        <path class="cls-1" d="m19.91,19.03c.05-.09.09-.19.14-.28.06-.09.13-.18.19-.26.04-.05.09-.08.1-.15,0-.02.04-.04.06-.06.2-.16.44-.25.69-.28.34-.04.67,0,.98.17.09.06.19.11.23.22,0,.02.03.04.05.06.13.14.23.3.32.47.02.04.04.07.06.11.07-.12.13-.24.2-.34.06-.09.15-.16.21-.25.22-.3.55-.4.9-.44.37-.05.72.04,1.05.23.11.06.17.17.24.25.09.09.17.19.23.3.06.1.11.22.13.34.04.21.07.42.07.64,0,1.35,0,2.7,0,4.05,0,.02,0,.04,0,.06,0,.18-.08.26-.26.26-.32,0-.63,0-.95,0-.22,0-.28-.07-.28-.28,0-.62,0-1.25,0-1.87,0-.54,0-1.08,0-1.63,0-.14,0-.28-.03-.41-.06-.41-.36-.55-.72-.5-.32.05-.52.25-.59.57-.04.18-.06.38-.06.57,0,1.09,0,2.18,0,3.28,0,.2-.07.28-.28.28-.31,0-.63,0-.94,0-.02,0-.04,0-.06,0-.15-.02-.22-.09-.22-.24,0-.16,0-.32,0-.49,0-.96,0-1.93,0-2.89,0-.21,0-.43-.07-.64-.06-.22-.19-.39-.42-.44-.36-.07-.67.04-.81.42-.08.21-.1.42-.1.64,0,1.1,0,2.19,0,3.29,0,.06,0,.11-.01.17-.02.09-.08.15-.17.16-.04,0-.09,0-.13,0-.29,0-.59,0-.88,0-.02,0-.05,0-.07,0-.16-.01-.22-.07-.23-.23,0-.06,0-.12,0-.18,0-1.77,0-3.54,0-5.32,0-.03,0-.06,0-.08.01-.14.08-.2.22-.2.24,0,.47,0,.71,0,.09,0,.17,0,.26,0,.15-.01.24.09.24.23,0,.2,0,.4,0,.61,0,.03,0,.05,0,.08,0,0,.01,0,.02,0Z"/>
        <path class="cls-1" d="m29.9,20.32c0-.2,0-.4-.03-.6-.04-.33-.23-.52-.56-.58-.3-.05-.57.01-.8.23-.1.09-.16.2-.2.33-.01.04-.02.09-.04.13-.04.11-.11.15-.23.14-.23-.02-.47-.05-.7-.08-.09-.01-.19-.02-.28-.03-.14-.03-.19-.1-.17-.24.07-.43.27-.79.61-1.08.05-.04.11-.07.15-.12.1-.13.24-.19.38-.25.14-.06.29-.11.44-.14.6-.14,1.2-.14,1.79.06.02,0,.04.01.06.02.22.08.41.19.57.37.11.13.24.25.33.4.13.23.17.49.19.75.02.27.02.54.02.81,0,.58,0,1.16,0,1.75,0,.22.06.42.17.6.05.09.12.17.17.25.03.04.05.07.08.11.07.12.06.19-.05.28-.25.22-.51.44-.76.66-.14.12-.23.12-.38,0-.15-.13-.28-.27-.39-.43-.05-.07-.1-.14-.15-.22-.03.02-.05.04-.07.07-.19.17-.37.35-.6.47-.2.11-.42.19-.64.21-.32.03-.64.05-.96-.03-.53-.14-.88-.47-1.04-.99-.14-.47-.13-.94.03-1.39.2-.57.63-.92,1.19-1.11.34-.12.69-.18,1.05-.22.24-.03.48-.05.71-.08.04,0,.07-.01.12-.02Zm-.01.87c-.16,0-.3.01-.45.03-.22.02-.44.07-.64.17-.16.08-.3.19-.38.35-.17.32-.18.65-.06.98.08.21.24.34.47.38.24.04.45-.04.63-.2.23-.2.35-.47.4-.77.05-.3.04-.61.03-.94Z"/>
        <path class="cls-1" d="m15.68,20.32c0-.2.01-.38,0-.56-.03-.38-.3-.62-.69-.63-.15,0-.3.01-.44.07-.21.09-.36.24-.43.46-.01.03-.02.07-.03.1-.05.17-.11.21-.28.19-.27-.03-.55-.06-.82-.09-.04,0-.09-.01-.13-.02-.13-.03-.19-.11-.16-.24.1-.45.31-.84.68-1.13.06-.04.14-.07.16-.16,0-.01.04-.02.06-.04.35-.2.74-.31,1.15-.34.45-.04.9-.02,1.34.13.08.03.16.06.24.09.11.06.24.09.3.22,0,.01.02.02.04.03.34.27.51.62.55,1.04.01.14.02.29.02.44,0,.7,0,1.41,0,2.11,0,.35.09.67.31.95.04.05.08.1.11.16.07.11.06.2-.04.29-.25.22-.5.43-.75.64-.02.01-.03.03-.05.04-.12.09-.21.09-.32,0-.18-.15-.33-.31-.46-.5-.04-.05-.07-.11-.11-.17-.03.03-.05.05-.08.07-.12.1-.24.21-.36.31-.36.28-.78.4-1.23.39-.2,0-.4,0-.59-.05-.61-.16-1.02-.6-1.12-1.23-.05-.33-.05-.66.04-.99.14-.54.48-.92.97-1.17.31-.16.65-.24.99-.29.34-.05.68-.08,1.03-.12.04,0,.08-.01.12-.02Zm-.01.87c-.15.01-.29.02-.44.03-.19.02-.38.06-.56.14-.22.09-.39.23-.48.45-.13.3-.14.61-.01.92.08.19.22.31.43.36.27.06.49-.03.68-.21.21-.19.32-.43.37-.7.06-.32.04-.64.03-.96,0,0,0-.01-.02-.04Z"/>
        <path class="cls-1" d="m44.48,19.13c.02-.05.05-.1.07-.15.09-.2.22-.37.35-.55.11-.15.24-.25.39-.32.19-.09.39-.12.6-.13.33,0,.65.06.93.25.06.04.13.07.15.15,0,.02.02.03.04.05.27.27.39.6.43.97.03.26.05.53.05.8,0,1.23,0,2.45,0,3.68,0,.2-.09.25-.24.25-.34,0-.67,0-1.01,0-.18,0-.25-.08-.25-.27,0-.9,0-1.8,0-2.71,0-.27,0-.54,0-.81,0-.16-.03-.31-.07-.47-.07-.26-.23-.43-.5-.46-.27-.03-.48.08-.64.3-.13.18-.19.39-.22.61-.02.14-.03.28-.03.42,0,1.01,0,2.02,0,3.03,0,.03,0,.06,0,.1,0,.17-.08.25-.26.25-.28,0-.56,0-.84,0-.06,0-.11,0-.17,0-.15,0-.21-.07-.23-.22,0-.04,0-.07,0-.11,0-1.8,0-3.61,0-5.41,0-.03,0-.06,0-.08.02-.12.08-.19.21-.19.15,0,.3,0,.45,0,.18,0,.36,0,.54,0,.15,0,.21.06.21.21,0,.27,0,.54,0,.81,0,0,.02,0,.03,0Z"/>
        <path class="cls-1" d="m42.24,21.19c-.01.53-.09,1.09-.33,1.62-.22.46-.53.84-.97,1.11-.87.54-2.35.49-3.11-.75-.22-.36-.36-.76-.43-1.18-.08-.47-.1-.95-.05-1.43.07-.64.26-1.24.69-1.75.11-.13.25-.23.37-.35.04-.04.11-.05.12-.13,0-.01.03-.02.05-.03.45-.27.94-.35,1.46-.3.32.03.62.13.9.29.03.02.07.03.08.08,0,.02.03.04.05.05.52.36.82.87,1,1.47.12.41.17.83.18,1.3Zm-1.6-.02c0-.37-.02-.72-.07-1.06-.03-.2-.08-.4-.17-.58-.22-.45-.9-.44-1.15-.12-.08.11-.15.23-.19.36-.08.26-.12.52-.12.79,0,.51-.03,1.02.05,1.52.04.24.09.48.22.69.09.15.21.26.38.3.31.08.61-.04.78-.31.11-.18.17-.37.2-.58.05-.34.07-.69.07-1.02Z"/>
        <path class="cls-1" d="m34.62,22.19c.12,0,.23,0,.34,0,.55.02,1.08.13,1.57.38.19.09.28.23.27.44,0,.23,0,.47,0,.7,0,.02,0,.04,0,.06-.01.13-.14.24-.29.16-.24-.13-.49-.22-.75-.29-.46-.13-.92-.17-1.4-.14-.55.04-1.06.18-1.55.43-.16.08-.29,0-.29-.18,0-.31,0-.61,0-.92,0-.17.07-.32.16-.46.65-1.01,1.36-1.98,2.05-2.97.01-.02.02-.04.04-.08-.06,0-.1,0-.14,0-.54,0-1.07,0-1.61,0-.04,0-.07,0-.11,0-.12,0-.18-.07-.19-.18,0-.02,0-.05,0-.07,0-.24,0-.49,0-.73,0-.2.06-.26.26-.26.39,0,.77,0,1.16,0,.75,0,1.5,0,2.25,0,.04,0,.08,0,.12,0,.1.02.16.08.16.18,0,.25.01.51,0,.76,0,.09-.06.18-.11.26-.11.18-.24.35-.36.52-.5.71-1,1.42-1.5,2.13-.05.07-.11.14-.1.25Z"/>
      </g>
      <g>
        <path class="cls-1" d="m26.46,28.57c-.58,0-1.15-.04-1.72-.12-1.36-.19-2.66-.57-3.9-1.15-.79-.37-1.54-.81-2.24-1.32-.05-.03-.1-.06-.12-.13,0-.02-.05-.04-.07-.06-.28-.23-.56-.46-.85-.69-.04-.03-.07-.07-.1-.1-.05-.07-.05-.15-.01-.2.05-.07.12-.07.19-.05.05.01.1.04.14.07.63.37,1.29.68,1.96.97.05.02.11.04.16.06.03.01.07.01.07.06,0,.02.06.04.09.05.59.24,1.2.44,1.81.61.8.22,1.61.39,2.43.51.42.06.85.09,1.27.13.66.06,1.32.07,1.98.04,2.08-.09,4.09-.51,6.02-1.28.04-.02.11,0,.11-.09.15-.06.29-.17.47-.11.17.05.26.26.17.41-.04.07-.1.12-.17.17-.53.38-1.09.7-1.68.98-1.01.47-2.07.8-3.17,1.02-.69.14-1.39.22-2.09.25-.25,0-.5,0-.75,0Z"/>
        <path class="cls-1" d="m34.07,25.1c-.42,0-.83.04-1.24.09-.07,0-.14.02-.21.02-.11,0-.16-.09-.09-.18.05-.06.11-.11.17-.15.29-.19.61-.31.95-.39.57-.13,1.15-.15,1.73-.06.13.02.25.06.38.1.12.04.19.13.21.26.03.19.01.39-.02.58-.09.6-.27,1.17-.59,1.69-.15.25-.33.47-.55.66-.05.04-.1.08-.16.1-.1.04-.17-.02-.15-.13,0-.04.02-.09.04-.13.17-.43.34-.86.46-1.3.07-.24.11-.49.11-.74,0-.21-.07-.3-.27-.35-.12-.04-.25-.05-.38-.06-.13-.01-.26,0-.39,0Z"/>
      </g>
    </g>
    <g>
      <path class="cls-1" d="m31.23,34.15c.15-.09.3-.15.41-.25.13-.12.28-.19.44-.26.16-.07.32-.13.48-.17.43-.11.86-.15,1.3-.06.28.06.53.17.74.37.01.01.04.02.04.04.04.13.16.21.22.34.15-.09.31-.15.42-.26.12-.12.26-.17.4-.23.15-.07.3-.12.46-.17.43-.12.86-.17,1.3-.11.33.04.63.16.86.39.11.11.19.26.28.39.16.27.22.57.22.88,0,.55,0,1.11,0,1.66,0,.84,0,1.68,0,2.52,0,.05,0,.11,0,.16-.01.12-.08.19-.21.2-.04,0-.07,0-.11,0-.36,0-.72,0-1.08,0-.22,0-.31-.1-.31-.31,0-.66,0-1.31,0-1.97,0-.57,0-1.14,0-1.71,0-.11,0-.22-.02-.33-.05-.35-.28-.56-.63-.57-.45-.01-.87.09-1.28.27-.07.03-.07.08-.07.14,0,.48,0,.95,0,1.43,0,.91,0,1.83,0,2.74,0,.03,0,.06,0,.08-.01.12-.08.2-.2.2-.43,0-.86,0-1.29,0-.12,0-.2-.09-.21-.21,0-.04,0-.07,0-.11,0-1.21,0-2.41,0-3.62,0-.13,0-.25-.02-.37-.05-.34-.27-.55-.61-.56-.46-.02-.89.09-1.31.28-.04.02-.06.05-.06.09,0,.04,0,.07,0,.11,0,1.3,0,2.61,0,3.91,0,.07,0,.15,0,.22,0,.19-.08.27-.27.27-.39,0-.79,0-1.18,0-.17,0-.25-.08-.27-.25,0-.06,0-.13,0-.19,0-1.76,0-3.51,0-5.27,0-.06,0-.11.01-.17.01-.09.07-.15.15-.17.05-.01.1-.02.14-.02.26,0,.53,0,.79,0,.24,0,.33.08.38.31.02.1.05.19.08.3Z"/>
      <path class="cls-1" d="m16.36,34.12c.1-.07.21-.13.28-.22.09-.12.22-.18.34-.24.13-.06.26-.12.39-.16.51-.17,1.02-.18,1.54-.05.25.07.48.17.67.33.15.12.28.28.4.43.3.36.48.77.58,1.23.15.67.14,1.35.02,2.02-.08.41-.22.8-.44,1.15-.31.49-.73.86-1.3,1.03-.51.15-1.02.13-1.52-.03-.29-.09-.55-.23-.8-.42,0,.06,0,.1,0,.14,0,.8,0,1.59,0,2.39,0,.05,0,.11-.01.16-.02.12-.08.17-.2.18-.07,0-.14.01-.21.01-.29,0-.58,0-.87,0-.06,0-.12,0-.18,0-.17-.01-.24-.08-.25-.25,0-.08-.01-.16-.01-.24,0-2.52,0-5.03,0-7.55,0-.1,0-.19.02-.29.01-.11.08-.16.19-.18.04,0,.08,0,.12,0,.26,0,.53,0,.79,0,.23,0,.33.09.37.31.01.08.04.16.06.24,0,.01.02.03.03.04Zm.16,2.46s0,0,0,0c0,.47,0,.94,0,1.41,0,.12.04.17.14.22.37.18.76.26,1.17.23.43-.04.76-.24.92-.65.07-.18.11-.37.15-.56.07-.4.06-.81.02-1.21-.02-.25-.08-.49-.18-.71-.16-.35-.44-.53-.81-.59-.46-.06-.89.03-1.3.24-.08.04-.11.09-.11.18,0,.48,0,.96,0,1.44Z"/>
      <path class="cls-1" d="m41.43,37c.02.25.07.48.15.7.13.35.39.57.74.68.27.09.55.11.83.11.49,0,.96-.09,1.43-.21.04-.01.08-.02.12-.03.15-.02.24.05.25.2,0,.06,0,.11,0,.17,0,.16,0,.32,0,.47,0,.17-.07.28-.23.34-.29.11-.58.19-.88.25-.44.08-.88.1-1.32.07-.52-.04-1.02-.16-1.46-.45-.55-.36-.89-.87-1.06-1.49-.12-.47-.15-.95-.13-1.43.02-.4.08-.8.22-1.18.19-.51.49-.94.92-1.27.04-.03.11-.05.12-.13,0-.01.04-.03.06-.04.37-.23.77-.35,1.2-.4.41-.05.82-.04,1.22.04.3.06.57.17.83.34.03.02.04.05.07.08.03.03.06.07.09.09.68.57.69,1.51.48,2.05-.16.4-.46.66-.84.83-.29.13-.61.2-.93.24-.38.05-.75.05-1.13.03-.23-.01-.45-.06-.67-.09-.02,0-.05,0-.08,0Zm.03-1.04s.05.02.07.02c.32.06.64.08.96.08.24,0,.47,0,.7-.09.27-.1.43-.29.45-.58.02-.41-.14-.69-.59-.77-.17-.03-.34-.03-.51-.01-.39.04-.67.25-.85.59-.09.17-.15.36-.19.55-.01.07-.02.14-.03.22Z"/>
      <path class="cls-1" d="m23.44,34.46s.06-.05.08-.07c.16-.15.33-.29.49-.44.04-.04.1-.05.11-.12,0-.01.03-.02.05-.04.31-.2.65-.31,1.02-.31.09,0,.18,0,.27,0,.15.01.21.07.23.22,0,.03,0,.06,0,.08,0,.34,0,.69,0,1.03,0,.18-.08.27-.26.28-.11,0-.22,0-.33-.02-.34-.03-.67.02-.99.09-.19.04-.37.1-.56.15,0,.06,0,.1,0,.14,0,1.28,0,2.56,0,3.84,0,.04,0,.09-.02.13-.03.11-.09.16-.2.16-.03,0-.06,0-.1,0-.37,0-.73,0-1.1,0-.03,0-.07,0-.1,0-.11-.01-.18-.07-.2-.18,0-.05-.01-.1-.01-.16,0-1.79,0-3.58,0-5.38,0-.04,0-.08,0-.12.02-.14.07-.2.22-.22.03,0,.06,0,.1,0,.26,0,.53,0,.79,0,.23,0,.33.09.37.32.04.2.09.39.13.6Z"/>
      <path class="cls-1" d="m28.23,36.57c0,.88,0,1.76,0,2.63,0,.06,0,.12,0,.18-.02.15-.1.22-.25.22-.13,0-.27,0-.4,0-.26,0-.51,0-.77,0-.2,0-.27-.07-.29-.27,0-.04,0-.07,0-.11,0-1.77,0-3.54,0-5.3,0-.07,0-.14.02-.21.01-.09.07-.15.16-.16.05-.01.1-.02.14-.02.37,0,.73,0,1.1,0,.02,0,.05,0,.07,0,.15.02.21.07.23.22,0,.06,0,.11,0,.17,0,.88,0,1.76,0,2.63h0Z"/>
      <path class="cls-1" d="m27.38,32.62c-.29,0-.55-.07-.75-.27-.14-.14-.23-.31-.24-.5,0-.13,0-.27.02-.4.05-.26.21-.45.45-.55.35-.15.71-.15,1.06.03.26.13.39.36.42.64.02.17.02.35-.05.51-.13.32-.39.47-.72.53-.07.01-.14.01-.19.02Z"/>
    </g>
  </g>
</svg>